<svg fill="none" xmlns="http://www.w3.org/2000/svg">
    <circle cx="186" cy="61" r="2" />
    <circle cx="171" cy="32" r="2" />
    <circle cx="156" cy="83" r="2" />
    <circle cx="118" cy="112" r="2" />
    <circle cx="72" cy="52" r="2" />
    <circle cx="63" cy="11" r="2" />
    <circle cx="39" cy="2" r="2" />
    <circle cx="32" cy="71" r="2" />
    <circle cx="30" cy="155" r="2" />
    <circle cx="60" cy="166" r="2" />
    <circle cx="143" cy="144" r="2" />
    <circle cx="175" cy="197" r="2" />
    <circle cx="239" cy="146" r="2" />
    <circle cx="278" cy="85" r="2" />
    <circle cx="282" cy="63" r="2" />
    <circle cx="255" cy="190" r="2" />
    <circle cx="274" cy="246" r="2" />
    <circle cx="201" cy="322" r="2" />
    <circle cx="228" cy="347" r="2" />
    <circle cx="208" cy="397" r="2" />
    <circle cx="39" cy="370" r="2" />
    <circle cx="41" cy="357" r="2" />
    <circle cx="125" cy="292" r="2" />
    <circle cx="112" cy="277" r="2" />
    <circle cx="97" cy="210" r="3" />
    <circle cx="150" cy="275" r="3" />
    <circle cx="124" cy="306" r="3" />
    <circle cx="117" cy="312" r="3" />
    <circle cx="26" cy="348" r="3" />
    <circle cx="255" cy="389" r="3" />
    <circle cx="23" cy="57" r="3" />
    <circle cx="259" cy="72" r="3" />
    <circle cx="167" cy="185" r="3" />
    <circle cx="223" cy="153" r="3" />
    <circle cx="188" cy="159" r="3" />
    <circle cx="240" cy="16" r="3" />
    <circle cx="267" cy="41" r="3" />
    <circle cx="207.5" cy="117.5" r="4.5" />
    <circle cx="140.5" cy="97.5" r="4.5" />
    <circle cx="45.5" cy="86.5" r="4.5" />
    <circle cx="174.5" cy="369.5" r="4.5" />
    <circle cx="65.5" cy="323.5" r="4.5" />
    <circle cx="56.5" cy="307.5" r="4.5" />
    <circle cx="49.5" cy="390.5" r="4.5" />
    <circle cx="256.5" cy="4.5" r="4.5" />
    <circle cx="133" cy="144" r="6" />
    <circle cx="52" cy="54" r="6" />
    <circle cx="111" cy="257" r="6" />
    <circle cx="261" cy="374" r="6" />
</svg>
    