<svg viewBox="0 0 300 456" fill="none" xmlns="http://www.w3.org/2000/svg">
    <path d="M114 200.765C114 221.651 131.086 238.714 152 238.714C172.914 238.714 190 221.651 190 200.765C190 193.94 188.223 187.524 184.942 181.927L152 122L119.058 181.927C115.777 187.524 114 193.94 114 200.765ZM149.95 226.702C149.95 225.2 151.043 223.971 152.547 223.835C164.712 223.562 174.417 213.733 174.691 201.721C174.691 200.219 175.921 198.99 177.561 199.127C179.065 199.127 180.295 200.356 180.158 201.994C179.748 217.01 167.719 229.022 152.683 229.432C152.683 229.432 152.683 229.432 152.547 229.432C151.18 229.432 149.95 228.203 149.95 226.702Z" fill="white" />
</svg>