<svg width="171" height="175" viewBox="0 0 171 175" fill="none" xmlns="http://www.w3.org/2000/svg">
    <path d="M8.80682 30L0.852273 0.90909H4.43182L10.5114 24.6023H10.7955L16.9886 0.90909H20.9659L27.1591 24.6023H27.4432L33.5227 0.90909H37.1023L29.1477 30H25.5114L19.0909 6.81818H18.8636L12.4432 30H8.80682ZM48.1534 30.4545C46.0511 30.4545 44.2377 29.9905 42.7131 29.0625C41.1979 28.125 40.0284 26.8182 39.2045 25.142C38.3902 23.4564 37.983 21.4962 37.983 19.2614C37.983 17.0265 38.3902 15.0568 39.2045 13.3523C40.0284 11.6383 41.1742 10.303 42.642 9.34659C44.1193 8.38068 45.8428 7.89773 47.8125 7.89773C48.9489 7.89773 50.071 8.08712 51.179 8.46591C52.2869 8.8447 53.2955 9.46023 54.2045 10.3125C55.1136 11.1553 55.8381 12.2727 56.3778 13.6648C56.9176 15.0568 57.1875 16.7708 57.1875 18.8068V20.2273H40.3693V17.3295H53.7784C53.7784 16.0985 53.5322 15 53.0398 14.0341C52.5568 13.0682 51.8655 12.3059 50.9659 11.7472C50.0758 11.1884 49.0246 10.9091 47.8125 10.9091C46.4773 10.9091 45.322 11.2405 44.3466 11.9034C43.3807 12.5568 42.6373 13.4091 42.1165 14.4602C41.5956 15.5114 41.3352 16.6383 41.3352 17.8409V19.7727C41.3352 21.4205 41.6193 22.8172 42.1875 23.9631C42.7652 25.0994 43.5653 25.9659 44.5881 26.5625C45.6108 27.1496 46.7992 27.4432 48.1534 27.4432C49.0341 27.4432 49.8295 27.3201 50.5398 27.0739C51.2595 26.8182 51.8797 26.4394 52.4006 25.9375C52.9214 25.4261 53.3239 24.7917 53.608 24.0341L56.8466 24.9432C56.5057 26.0417 55.9328 27.0076 55.1278 27.8409C54.3229 28.6648 53.3286 29.3087 52.1449 29.7727C50.9612 30.2273 49.6307 30.4545 48.1534 30.4545ZM65.6392 0.90909V30H62.2869V0.90909H65.6392ZM80.6428 30.4545C78.5973 30.4545 76.8359 29.9716 75.3587 29.0057C73.8814 28.0398 72.745 26.7093 71.9496 25.0142C71.1541 23.3191 70.7564 21.3826 70.7564 19.2045C70.7564 16.9886 71.1636 15.0331 71.978 13.3381C72.8018 11.6335 73.9477 10.303 75.4155 9.34659C76.8928 8.38068 78.6162 7.89773 80.5859 7.89773C82.12 7.89773 83.5026 8.18182 84.7337 8.75C85.9647 9.31818 86.9732 10.1136 87.7592 11.1364C88.5452 12.1591 89.0329 13.3523 89.2223 14.7159H85.87C85.6143 13.7216 85.0462 12.8409 84.1655 12.0739C83.2943 11.2973 82.12 10.9091 80.6428 10.9091C79.3359 10.9091 78.1901 11.25 77.2053 11.9318C76.2299 12.6042 75.4676 13.5559 74.9183 14.7869C74.3786 16.0085 74.1087 17.4432 74.1087 19.0909C74.1087 20.7765 74.3738 22.2443 74.9041 23.4943C75.4439 24.7443 76.2015 25.715 77.1768 26.4062C78.1617 27.0975 79.317 27.4432 80.6428 27.4432C81.514 27.4432 82.3047 27.2917 83.0149 26.9886C83.7251 26.6856 84.3265 26.25 84.8189 25.6818C85.3113 25.1136 85.6617 24.4318 85.87 23.6364H89.2223C89.0329 24.9242 88.5642 26.0843 87.8161 27.1165C87.0774 28.1392 86.0973 28.9536 84.8757 29.5597C83.6636 30.1562 82.2526 30.4545 80.6428 30.4545ZM102.987 30.4545C101.017 30.4545 99.2886 29.9858 97.8018 29.0483C96.3246 28.1108 95.1693 26.7992 94.3359 25.1136C93.5121 23.428 93.1001 21.4583 93.1001 19.2045C93.1001 16.9318 93.5121 14.9479 94.3359 13.2528C95.1693 11.5578 96.3246 10.2415 97.8018 9.30398C99.2886 8.36648 101.017 7.89773 102.987 7.89773C104.956 7.89773 106.68 8.36648 108.157 9.30398C109.644 10.2415 110.799 11.5578 111.623 13.2528C112.456 14.9479 112.873 16.9318 112.873 19.2045C112.873 21.4583 112.456 23.428 111.623 25.1136C110.799 26.7992 109.644 28.1108 108.157 29.0483C106.68 29.9858 104.956 30.4545 102.987 30.4545ZM102.987 27.4432C104.483 27.4432 105.714 27.0597 106.68 26.2926C107.646 25.5256 108.361 24.517 108.825 23.267C109.289 22.017 109.521 20.6629 109.521 19.2045C109.521 17.7462 109.289 16.3873 108.825 15.1278C108.361 13.8684 107.646 12.8504 106.68 12.0739C105.714 11.2973 104.483 10.9091 102.987 10.9091C101.49 10.9091 100.259 11.2973 99.2933 12.0739C98.3274 12.8504 97.6125 13.8684 97.1484 15.1278C96.6844 16.3873 96.4524 17.7462 96.4524 19.2045C96.4524 20.6629 96.6844 22.017 97.1484 23.267C97.6125 24.517 98.3274 25.5256 99.2933 26.2926C100.259 27.0597 101.49 27.4432 102.987 27.4432ZM117.99 30V8.18182H121.229V11.5909H121.513C121.967 10.4261 122.701 9.52178 123.714 8.87784C124.728 8.22443 125.945 7.89773 127.365 7.89773C128.804 7.89773 130.002 8.22443 130.959 8.87784C131.925 9.52178 132.678 10.4261 133.217 11.5909H133.445C134.003 10.464 134.841 9.56913 135.959 8.90625C137.076 8.2339 138.416 7.89773 139.979 7.89773C141.929 7.89773 143.525 8.50852 144.766 9.73011C146.006 10.9422 146.626 12.8314 146.626 15.3977V30H143.274V15.3977C143.274 13.7879 142.834 12.6373 141.953 11.946C141.072 11.2547 140.036 10.9091 138.842 10.9091C137.308 10.9091 136.12 11.3731 135.277 12.3011C134.434 13.2197 134.013 14.3845 134.013 15.7955V30H130.604V15.0568C130.604 13.8163 130.201 12.8172 129.396 12.0597C128.591 11.2926 127.554 10.9091 126.286 10.9091C125.414 10.9091 124.6 11.1411 123.842 11.6051C123.094 12.0691 122.488 12.7131 122.024 13.5369C121.57 14.3513 121.342 15.2936 121.342 16.3636V30H117.99ZM161.903 30.4545C159.801 30.4545 157.988 29.9905 156.463 29.0625C154.948 28.125 153.778 26.8182 152.955 25.142C152.14 23.4564 151.733 21.4962 151.733 19.2614C151.733 17.0265 152.14 15.0568 152.955 13.3523C153.778 11.6383 154.924 10.303 156.392 9.34659C157.869 8.38068 159.593 7.89773 161.562 7.89773C162.699 7.89773 163.821 8.08712 164.929 8.46591C166.037 8.8447 167.045 9.46023 167.955 10.3125C168.864 11.1553 169.588 12.2727 170.128 13.6648C170.668 15.0568 170.938 16.7708 170.938 18.8068V20.2273H154.119V17.3295H167.528C167.528 16.0985 167.282 15 166.79 14.0341C166.307 13.0682 165.616 12.3059 164.716 11.7472C163.826 11.1884 162.775 10.9091 161.562 10.9091C160.227 10.9091 159.072 11.2405 158.097 11.9034C157.131 12.5568 156.387 13.4091 155.866 14.4602C155.346 15.5114 155.085 16.6383 155.085 17.8409V19.7727C155.085 21.4205 155.369 22.8172 155.938 23.9631C156.515 25.0994 157.315 25.9659 158.338 26.5625C159.361 27.1496 160.549 27.4432 161.903 27.4432C162.784 27.4432 163.58 27.3201 164.29 27.0739C165.009 26.8182 165.63 26.4394 166.151 25.9375C166.671 25.4261 167.074 24.7917 167.358 24.0341L170.597 24.9432C170.256 26.0417 169.683 27.0076 168.878 27.8409C168.073 28.6648 167.079 29.3087 165.895 29.7727C164.711 30.2273 163.381 30.4545 161.903 30.4545ZM80.0568 56.1818V59.0227H68.75V56.1818H80.0568ZM72.0455 50.9545H75.3977V71.75C75.3977 72.697 75.535 73.4072 75.8097 73.8807C76.0938 74.3447 76.4536 74.6572 76.8892 74.8182C77.3343 74.9697 77.803 75.0455 78.2955 75.0455C78.6648 75.0455 78.9678 75.0265 79.2045 74.9886C79.4413 74.9413 79.6307 74.9034 79.7727 74.875L80.4545 77.8864C80.2273 77.9716 79.91 78.0568 79.5028 78.142C79.0956 78.2367 78.5795 78.2841 77.9545 78.2841C77.0076 78.2841 76.0795 78.0805 75.1705 77.6733C74.2708 77.2661 73.5227 76.6458 72.9261 75.8125C72.339 74.9792 72.0455 73.928 72.0455 72.6591V50.9545ZM93.7287 78.4545C91.759 78.4545 90.0308 77.9858 88.544 77.0483C87.0668 76.1108 85.9115 74.7992 85.0781 73.1136C84.2543 71.428 83.8423 69.4583 83.8423 67.2045C83.8423 64.9318 84.2543 62.9479 85.0781 61.2528C85.9115 59.5578 87.0668 58.2415 88.544 57.304C90.0308 56.3665 91.759 55.8977 93.7287 55.8977C95.6984 55.8977 97.4219 56.3665 98.8991 57.304C100.386 58.2415 101.541 59.5578 102.365 61.2528C103.198 62.9479 103.615 64.9318 103.615 67.2045C103.615 69.4583 103.198 71.428 102.365 73.1136C101.541 74.7992 100.386 76.1108 98.8991 77.0483C97.4219 77.9858 95.6984 78.4545 93.7287 78.4545ZM93.7287 75.4432C95.2249 75.4432 96.456 75.0597 97.4219 74.2926C98.3878 73.5256 99.1027 72.517 99.5668 71.267C100.031 70.017 100.263 68.6629 100.263 67.2045C100.263 65.7462 100.031 64.3873 99.5668 63.1278C99.1027 61.8684 98.3878 60.8504 97.4219 60.0739C96.456 59.2973 95.2249 58.9091 93.7287 58.9091C92.2325 58.9091 91.0014 59.2973 90.0355 60.0739C89.0696 60.8504 88.3546 61.8684 87.8906 63.1278C87.4266 64.3873 87.1946 65.7462 87.1946 67.2045C87.1946 68.6629 87.4266 70.017 87.8906 71.267C88.3546 72.517 89.0696 73.5256 90.0355 74.2926C91.0014 75.0597 92.2325 75.4432 93.7287 75.4432ZM3.52273 126V96.9091H6.875V107.648H7.15909C7.4053 107.269 7.74621 106.786 8.18182 106.199C8.62689 105.602 9.26136 105.072 10.0852 104.608C10.9186 104.134 12.0455 103.898 13.4659 103.898C15.303 103.898 16.9223 104.357 18.3239 105.276C19.7254 106.194 20.8191 107.496 21.6051 109.182C22.3911 110.867 22.7841 112.856 22.7841 115.148C22.7841 117.458 22.3911 119.461 21.6051 121.156C20.8191 122.842 19.7301 124.149 18.3381 125.077C16.946 125.995 15.3409 126.455 13.5227 126.455C12.1212 126.455 10.9991 126.223 10.1562 125.759C9.31345 125.285 8.66477 124.75 8.21023 124.153C7.75568 123.547 7.4053 123.045 7.15909 122.648H6.76136V126H3.52273ZM6.81818 115.091C6.81818 116.739 7.05966 118.192 7.54261 119.452C8.02557 120.702 8.73106 121.682 9.65909 122.392C10.5871 123.093 11.7235 123.443 13.0682 123.443C14.4697 123.443 15.6392 123.074 16.5767 122.335C17.5237 121.587 18.2339 120.583 18.7074 119.324C19.1903 118.055 19.4318 116.644 19.4318 115.091C19.4318 113.557 19.1951 112.174 18.7216 110.943C18.2576 109.703 17.5521 108.723 16.6051 108.003C15.6676 107.274 14.4886 106.909 13.0682 106.909C11.7045 106.909 10.5587 107.255 9.63068 107.946C8.70265 108.628 8.00189 109.584 7.52841 110.815C7.05492 112.037 6.81818 113.462 6.81818 115.091ZM37.0597 126.455C34.9574 126.455 33.1439 125.991 31.6193 125.062C30.1042 124.125 28.9347 122.818 28.1108 121.142C27.2964 119.456 26.8892 117.496 26.8892 115.261C26.8892 113.027 27.2964 111.057 28.1108 109.352C28.9347 107.638 30.0805 106.303 31.5483 105.347C33.0256 104.381 34.7491 103.898 36.7188 103.898C37.8551 103.898 38.9773 104.087 40.0852 104.466C41.1932 104.845 42.2017 105.46 43.1108 106.312C44.0199 107.155 44.7443 108.273 45.2841 109.665C45.8239 111.057 46.0938 112.771 46.0938 114.807V116.227H29.2756V113.33H42.6847C42.6847 112.098 42.4384 111 41.946 110.034C41.4631 109.068 40.7718 108.306 39.8722 107.747C38.982 107.188 37.9309 106.909 36.7188 106.909C35.3835 106.909 34.2282 107.241 33.2528 107.903C32.2869 108.557 31.5436 109.409 31.0227 110.46C30.5019 111.511 30.2415 112.638 30.2415 113.841V115.773C30.2415 117.42 30.5256 118.817 31.0938 119.963C31.6714 121.099 32.4716 121.966 33.4943 122.562C34.517 123.15 35.7055 123.443 37.0597 123.443C37.9403 123.443 38.7358 123.32 39.446 123.074C40.1657 122.818 40.786 122.439 41.3068 121.938C41.8277 121.426 42.2301 120.792 42.5142 120.034L45.7528 120.943C45.4119 122.042 44.839 123.008 44.0341 123.841C43.2292 124.665 42.2348 125.309 41.0511 125.773C39.8674 126.227 38.5369 126.455 37.0597 126.455ZM57.6136 126.511C56.2311 126.511 54.9763 126.251 53.8494 125.73C52.7225 125.2 51.8277 124.438 51.1648 123.443C50.5019 122.439 50.1705 121.227 50.1705 119.807C50.1705 118.557 50.4167 117.544 50.9091 116.767C51.4015 115.981 52.0597 115.366 52.8835 114.92C53.7074 114.475 54.6165 114.144 55.6108 113.926C56.6146 113.699 57.6231 113.519 58.6364 113.386C59.9621 113.216 61.0369 113.088 61.8608 113.003C62.6941 112.908 63.3002 112.752 63.679 112.534C64.0672 112.316 64.2614 111.937 64.2614 111.398V111.284C64.2614 109.883 63.8778 108.794 63.1108 108.017C62.3532 107.241 61.2027 106.852 59.6591 106.852C58.0587 106.852 56.804 107.203 55.8949 107.903C54.9858 108.604 54.3466 109.352 53.9773 110.148L50.7955 109.011C51.3636 107.686 52.1212 106.653 53.0682 105.915C54.0246 105.167 55.0663 104.646 56.1932 104.352C57.3295 104.049 58.447 103.898 59.5455 103.898C60.2462 103.898 61.0511 103.983 61.9602 104.153C62.8788 104.314 63.7642 104.651 64.6165 105.162C65.4782 105.673 66.1932 106.445 66.7614 107.477C67.3295 108.509 67.6136 109.892 67.6136 111.625V126H64.2614V123.045H64.0909C63.8636 123.519 63.4848 124.026 62.9545 124.565C62.4242 125.105 61.7188 125.564 60.8381 125.943C59.9574 126.322 58.8826 126.511 57.6136 126.511ZM58.125 123.5C59.4508 123.5 60.5682 123.24 61.4773 122.719C62.3958 122.198 63.0871 121.526 63.5511 120.702C64.0246 119.878 64.2614 119.011 64.2614 118.102V115.034C64.1193 115.205 63.8068 115.361 63.3239 115.503C62.8504 115.635 62.3011 115.754 61.6761 115.858C61.0606 115.953 60.4593 116.038 59.8722 116.114C59.2945 116.18 58.8258 116.237 58.4659 116.284C57.5947 116.398 56.7803 116.582 56.0227 116.838C55.2746 117.084 54.6686 117.458 54.2045 117.96C53.75 118.453 53.5227 119.125 53.5227 119.977C53.5227 121.142 53.9536 122.023 54.8153 122.619C55.6866 123.206 56.7898 123.5 58.125 123.5ZM87.4822 117.08V104.182H90.8345V126H87.4822V122.307H87.255C86.7436 123.415 85.9482 124.357 84.8686 125.134C83.7891 125.901 82.4254 126.284 80.7777 126.284C79.4141 126.284 78.2019 125.986 77.1413 125.389C76.0807 124.783 75.2474 123.874 74.6413 122.662C74.0353 121.44 73.7322 119.902 73.7322 118.045V104.182H77.0845V117.818C77.0845 119.409 77.5296 120.678 78.4197 121.625C79.3194 122.572 80.4652 123.045 81.8572 123.045C82.6906 123.045 83.5381 122.832 84.3999 122.406C85.2711 121.98 86.0002 121.327 86.5874 120.446C87.1839 119.565 87.4822 118.443 87.4822 117.08ZM106.463 104.182V107.023H95.1562V104.182H106.463ZM98.4517 98.9545H101.804V119.75C101.804 120.697 101.941 121.407 102.216 121.881C102.5 122.345 102.86 122.657 103.295 122.818C103.741 122.97 104.209 123.045 104.702 123.045C105.071 123.045 105.374 123.027 105.611 122.989C105.848 122.941 106.037 122.903 106.179 122.875L106.861 125.886C106.634 125.972 106.316 126.057 105.909 126.142C105.502 126.237 104.986 126.284 104.361 126.284C103.414 126.284 102.486 126.08 101.577 125.673C100.677 125.266 99.929 124.646 99.3324 123.812C98.7453 122.979 98.4517 121.928 98.4517 120.659V98.9545ZM111.506 126V104.182H114.858V126H111.506ZM113.21 100.545C112.557 100.545 111.993 100.323 111.52 99.8778C111.056 99.4328 110.824 98.8977 110.824 98.2727C110.824 97.6477 111.056 97.1127 111.52 96.6676C111.993 96.2225 112.557 96 113.21 96C113.864 96 114.422 96.2225 114.886 96.6676C115.36 97.1127 115.597 97.6477 115.597 98.2727C115.597 98.8977 115.36 99.4328 114.886 99.8778C114.422 100.323 113.864 100.545 113.21 100.545ZM130.714 104.182V107.023H118.952V104.182H130.714ZM122.475 126V101.17C122.475 99.9205 122.769 98.8788 123.356 98.0455C123.943 97.2121 124.705 96.5871 125.643 96.1705C126.58 95.7538 127.57 95.5455 128.612 95.5455C129.435 95.5455 130.108 95.6117 130.629 95.7443C131.149 95.8769 131.538 96 131.793 96.1136L130.827 99.0114C130.657 98.9545 130.42 98.8835 130.117 98.7983C129.824 98.7131 129.435 98.6705 128.952 98.6705C127.844 98.6705 127.044 98.9498 126.552 99.5085C126.069 100.067 125.827 100.886 125.827 101.966V126H122.475ZM149.162 117.08V104.182H152.514V126H149.162V122.307H148.935C148.423 123.415 147.628 124.357 146.548 125.134C145.469 125.901 144.105 126.284 142.457 126.284C141.094 126.284 139.882 125.986 138.821 125.389C137.76 124.783 136.927 123.874 136.321 122.662C135.715 121.44 135.412 119.902 135.412 118.045V104.182H138.764V117.818C138.764 119.409 139.209 120.678 140.099 121.625C140.999 122.572 142.145 123.045 143.537 123.045C144.37 123.045 145.218 122.832 146.08 122.406C146.951 121.98 147.68 121.327 148.267 120.446C148.864 119.565 149.162 118.443 149.162 117.08ZM162.006 96.9091V126H158.654V96.9091H162.006ZM34.4318 174.455C32.3864 174.455 30.625 173.972 29.1477 173.006C27.6705 172.04 26.5341 170.709 25.7386 169.014C24.9432 167.319 24.5455 165.383 24.5455 163.205C24.5455 160.989 24.9527 159.033 25.767 157.338C26.5909 155.634 27.7367 154.303 29.2045 153.347C30.6818 152.381 32.4053 151.898 34.375 151.898C35.9091 151.898 37.2917 152.182 38.5227 152.75C39.7538 153.318 40.7623 154.114 41.5483 155.136C42.3343 156.159 42.822 157.352 43.0114 158.716H39.6591C39.4034 157.722 38.8352 156.841 37.9545 156.074C37.0833 155.297 35.9091 154.909 34.4318 154.909C33.125 154.909 31.9792 155.25 30.9943 155.932C30.0189 156.604 29.2566 157.556 28.7074 158.787C28.1676 160.009 27.8977 161.443 27.8977 163.091C27.8977 164.777 28.1629 166.244 28.6932 167.494C29.233 168.744 29.9905 169.715 30.9659 170.406C31.9508 171.098 33.1061 171.443 34.4318 171.443C35.303 171.443 36.0938 171.292 36.804 170.989C37.5142 170.686 38.1155 170.25 38.608 169.682C39.1004 169.114 39.4508 168.432 39.6591 167.636H43.0114C42.822 168.924 42.3532 170.084 41.6051 171.116C40.8665 172.139 39.8864 172.954 38.6648 173.56C37.4527 174.156 36.0417 174.455 34.4318 174.455ZM51.2642 160.875V174H47.9119V144.909H51.2642V155.591H51.5483C52.0597 154.464 52.8267 153.569 53.8494 152.906C54.8816 152.234 56.2547 151.898 57.9688 151.898C59.4555 151.898 60.7576 152.196 61.875 152.793C62.9924 153.38 63.8589 154.284 64.4744 155.506C65.0994 156.718 65.4119 158.261 65.4119 160.136V174H62.0597V160.364C62.0597 158.631 61.6098 157.291 60.7102 156.344C59.8201 155.387 58.5843 154.909 57.0028 154.909C55.9044 154.909 54.9195 155.141 54.0483 155.605C53.1866 156.069 52.5047 156.746 52.0028 157.636C51.5104 158.527 51.2642 159.606 51.2642 160.875ZM77.9652 174.511C76.5826 174.511 75.3279 174.251 74.201 173.73C73.0741 173.2 72.1792 172.438 71.5163 171.443C70.8535 170.439 70.522 169.227 70.522 167.807C70.522 166.557 70.7682 165.544 71.2607 164.767C71.7531 163.981 72.4112 163.366 73.2351 162.92C74.0589 162.475 74.968 162.144 75.9624 161.926C76.9661 161.699 77.9747 161.519 78.9879 161.386C80.3137 161.216 81.3885 161.088 82.2124 161.003C83.0457 160.908 83.6518 160.752 84.0305 160.534C84.4188 160.316 84.6129 159.937 84.6129 159.398V159.284C84.6129 157.883 84.2294 156.794 83.4624 156.017C82.7048 155.241 81.5542 154.852 80.0107 154.852C78.4103 154.852 77.1555 155.203 76.2464 155.903C75.3374 156.604 74.6982 157.352 74.3288 158.148L71.147 157.011C71.7152 155.686 72.4728 154.653 73.4197 153.915C74.3762 153.167 75.4179 152.646 76.5447 152.352C77.6811 152.049 78.7985 151.898 79.897 151.898C80.5978 151.898 81.4027 151.983 82.3118 152.153C83.2304 152.314 84.1158 152.651 84.968 153.162C85.8298 153.673 86.5447 154.445 87.1129 155.477C87.6811 156.509 87.9652 157.892 87.9652 159.625V174H84.6129V171.045H84.4425C84.2152 171.519 83.8364 172.026 83.3061 172.565C82.7758 173.105 82.0703 173.564 81.1896 173.943C80.3089 174.322 79.2341 174.511 77.9652 174.511ZM78.4766 171.5C79.8023 171.5 80.9197 171.24 81.8288 170.719C82.7474 170.198 83.4387 169.526 83.9027 168.702C84.3762 167.878 84.6129 167.011 84.6129 166.102V163.034C84.4709 163.205 84.1584 163.361 83.6754 163.503C83.2019 163.635 82.6527 163.754 82.0277 163.858C81.4122 163.953 80.8108 164.038 80.2237 164.114C79.6461 164.18 79.1773 164.237 78.8175 164.284C77.9463 164.398 77.1319 164.582 76.3743 164.838C75.6262 165.084 75.0201 165.458 74.5561 165.96C74.1016 166.453 73.8743 167.125 73.8743 167.977C73.8743 169.142 74.3052 170.023 75.1669 170.619C76.0381 171.206 77.1413 171.5 78.4766 171.5ZM94.0838 174V152.182H97.3224V155.477H97.5497C97.9474 154.398 98.6671 153.522 99.7088 152.849C100.75 152.177 101.925 151.841 103.232 151.841C103.478 151.841 103.786 151.846 104.155 151.855C104.524 151.865 104.804 151.879 104.993 151.898V155.307C104.879 155.278 104.619 155.236 104.212 155.179C103.814 155.113 103.393 155.08 102.947 155.08C101.887 155.08 100.94 155.302 100.107 155.747C99.2827 156.183 98.6293 156.789 98.1463 157.565C97.6728 158.332 97.4361 159.208 97.4361 160.193V174H94.0838ZM119.822 152.182V155.023H108.516V152.182H119.822ZM111.811 146.955H115.163V167.75C115.163 168.697 115.301 169.407 115.575 169.881C115.859 170.345 116.219 170.657 116.655 170.818C117.1 170.97 117.569 171.045 118.061 171.045C118.43 171.045 118.733 171.027 118.97 170.989C119.207 170.941 119.396 170.903 119.538 170.875L120.22 173.886C119.993 173.972 119.676 174.057 119.268 174.142C118.861 174.237 118.345 174.284 117.72 174.284C116.773 174.284 115.845 174.08 114.936 173.673C114.036 173.266 113.288 172.646 112.692 171.812C112.105 170.979 111.811 169.928 111.811 168.659V146.955ZM139.929 157.068L136.918 157.92C136.728 157.419 136.449 156.931 136.08 156.457C135.72 155.974 135.227 155.577 134.602 155.264C133.977 154.952 133.177 154.795 132.202 154.795C130.866 154.795 129.754 155.103 128.864 155.719C127.983 156.325 127.543 157.097 127.543 158.034C127.543 158.867 127.846 159.526 128.452 160.009C129.058 160.491 130.005 160.894 131.293 161.216L134.531 162.011C136.482 162.485 137.936 163.209 138.892 164.185C139.848 165.151 140.327 166.396 140.327 167.92C140.327 169.17 139.967 170.288 139.247 171.273C138.537 172.258 137.543 173.034 136.264 173.602C134.986 174.17 133.499 174.455 131.804 174.455C129.579 174.455 127.737 173.972 126.278 173.006C124.82 172.04 123.897 170.629 123.509 168.773L126.69 167.977C126.993 169.152 127.566 170.032 128.409 170.619C129.261 171.206 130.374 171.5 131.747 171.5C133.31 171.5 134.55 171.169 135.469 170.506C136.397 169.833 136.861 169.028 136.861 168.091C136.861 167.333 136.596 166.699 136.065 166.188C135.535 165.667 134.721 165.278 133.622 165.023L129.986 164.17C127.988 163.697 126.52 162.963 125.582 161.969C124.654 160.965 124.19 159.71 124.19 158.205C124.19 156.973 124.536 155.884 125.227 154.938C125.928 153.991 126.88 153.247 128.082 152.707C129.295 152.168 130.668 151.898 132.202 151.898C134.361 151.898 136.056 152.371 137.287 153.318C138.527 154.265 139.408 155.515 139.929 157.068Z" fill="black"/>
    </svg>
    